<svg width="68" height="68" viewBox="0 0 68 68" fill="none" xmlns="http://www.w3.org/2000/svg">
<g clip-path="url(#clip0_19_2705)">
<path d="M17 32.8856V51H35.1144L31.3367 47.2222H20.7778V36.6633L17 32.8856Z" fill="white"/>
<path d="M65.8656 60.9922L60.4444 55.4955V60.4444H7.55555V52.6055H11.3333V49.5833H7.55555V37.0222H11.3333V34H7.55555V21.9111H11.3333V18.8889H7.55555V8.33L37.6644 38.2689V32.9422L7.00778 2.43666C6.74358 2.17027 6.40603 1.9886 6.03817 1.9148C5.67032 1.841 5.28882 1.87842 4.94231 2.02229C4.59581 2.16617 4.3 2.40997 4.09259 2.72262C3.88519 3.03526 3.77559 3.40259 3.77778 3.77777V62.3333C3.77778 62.8343 3.97678 63.3147 4.33102 63.669C4.68525 64.0232 5.1657 64.2222 5.66667 64.2222H64.5244C64.8996 64.2244 65.267 64.1148 65.5796 63.9074C65.8922 63.7 66.1361 63.4042 66.2799 63.0577C66.4238 62.7112 66.4612 62.3297 66.3874 61.9618C66.3136 61.594 66.1319 61.2564 65.8656 60.9922Z" fill="white"/>
<path d="M45.3333 56.6667H52.8889C53.8908 56.6667 54.8517 56.2687 55.5602 55.5602C56.2687 54.8517 56.6667 53.8908 56.6667 52.8889V16.4333L52.3222 8.44333C51.9862 7.86121 51.501 7.37928 50.9166 7.04724C50.3322 6.7152 49.6698 6.54509 48.9978 6.55444C48.3105 6.5599 47.6377 6.75274 47.0519 7.11222C46.4661 7.47169 45.9895 7.98416 45.6733 8.59444L41.5556 16.4711V52.8889C41.5556 53.8908 41.9536 54.8517 42.662 55.5602C43.3705 56.2687 44.3314 56.6667 45.3333 56.6667ZM45.3333 17.3778L48.9978 10.2567L52.8889 17.3967V45.3333H45.3333V17.3778ZM45.3333 48.4122H52.8889V53.0211H45.3333V48.4122Z" fill="white"/>
</g>
<defs>
<clipPath id="clip0_19_2705">
<rect width="68" height="68" fill="white"/>
</clipPath>
</defs>
</svg>
