<svg width="95" height="95" viewBox="0 0 95 95" fill="none" xmlns="http://www.w3.org/2000/svg">
<path d="M76.5224 95C81.8238 95 86.1578 90.6854 86.1578 85.3646V45.6813C86.1578 40.3799 81.8432 36.0458 76.5224 36.0458H18.4776C13.1762 36.0458 8.84216 40.3605 8.84216 45.6813V85.3646C8.84216 90.666 13.1568 95 18.4776 95H76.5224ZM18.6904 49.4542C17.6843 48.6029 17.5682 47.113 18.4196 46.1069C19.2709 45.1008 20.7607 44.9847 21.7668 45.8361L47.5 67.6996L73.2525 45.8554C74.2587 45.0041 75.7485 45.1395 76.5998 46.1263C77.4511 47.1324 77.3157 48.6222 76.3289 49.4735L57.9481 65.0682L76.4063 82.443C77.3544 83.333 77.4124 84.8422 76.5031 85.7902C76.0387 86.2933 75.4002 86.5448 74.7811 86.5448C74.2006 86.5448 73.6202 86.332 73.1558 85.9063L54.2913 68.164L49.0285 72.6334C48.5835 73.001 48.0418 73.1945 47.5 73.1945C46.9583 73.1945 46.4165 73.001 45.9715 72.6334L40.7088 68.164L21.8442 85.9063C21.3798 86.332 20.7994 86.5448 20.2189 86.5448C19.5805 86.5448 18.9613 86.2933 18.4969 85.7902C17.6069 84.8422 17.6456 83.333 18.5937 82.443L37.0519 65.0682L18.6904 49.4542Z" fill="white"/>
<path d="M47.5 0C49.5703 0 51.2342 1.66395 51.2342 3.73422V26.5265C51.2342 28.5967 49.5703 30.2607 47.5 30.2607C45.4297 30.2607 43.7658 28.5967 43.7658 26.5265V3.75356C43.7658 1.6833 45.4297 0 47.5 0Z" fill="white"/>
<path d="M32.4664 12.0346C34.5367 12.0346 36.2006 13.6986 36.2006 15.7689V26.5265C36.2006 28.5968 34.5367 30.2607 32.4664 30.2607C30.3961 30.2607 28.7322 28.5968 28.7322 26.5265V15.7689C28.7322 13.7179 30.3961 12.0346 32.4664 12.0346Z" fill="white"/>
<path d="M62.5336 12.0346C60.4633 12.0346 58.7994 13.6986 58.7994 15.7689V26.5265C58.7994 28.5968 60.4633 30.2607 62.5336 30.2607C64.6039 30.2607 66.2678 28.5968 66.2678 26.5265V15.7689C66.2678 13.7179 64.6039 12.0346 62.5336 12.0346Z" fill="white"/>
</svg>
