<svg width="70" height="70" viewBox="0 0 70 70" fill="none" xmlns="http://www.w3.org/2000/svg">
<g clip-path="url(#clip0_19_2709)">
<path d="M68.7125 26.806L43.7793 1.87286C42.8428 0.93636 41.2041 0.93636 40.2676 1.87286L39.4483 2.69221C38.9801 3.1604 38.7459 3.86274 38.7459 4.56508L39.3892 14.1058L31.4615 22.0335L21.6032 10.1167C23.1483 8.74772 23.8933 7.28761 23.9968 5.73574C24.1138 3.97989 23.1774 2.22403 21.3044 0.351167C20.8362 -0.117015 20.1339 -0.117015 19.6656 0.351167C19.1972 0.819349 19.1974 1.52169 19.6656 1.99001C21.0702 3.39469 21.6556 4.56522 21.6556 5.61873C21.5589 6.48952 21.0608 7.36059 20.0981 8.2975L19.4314 7.49159C18.1437 6.08691 16.3879 5.38457 14.515 5.38457C12.6421 5.38457 11.0033 6.20392 9.59862 7.49159C8.19394 8.77927 7.49159 10.5351 7.49159 12.408C7.49159 14.2809 8.19394 16.0367 9.59862 17.4414L10.3675 18.0772L9.48147 18.9632C8.07679 20.2509 7.37445 22.0067 7.37445 23.8796C7.37445 25.7525 8.1938 27.5083 9.48147 28.796C10.7691 30.2007 12.525 30.903 14.3979 30.903C16.2707 30.903 18.0266 30.2007 19.3143 28.913L21.1486 26.9913L24.0799 29.4149L13.5206 39.9742L3.97989 39.331C3.27755 39.331 2.5752 39.5651 2.10702 40.0333L1.28767 40.8527C0.819487 41.3209 0.585327 41.9062 0.585327 42.6085C0.585327 43.3109 0.819487 43.8962 1.28767 44.3644L26.2208 69.2975C26.689 69.7657 27.2743 69.9999 27.9767 69.9999C28.679 69.9999 29.2643 69.7657 29.7325 69.2975L30.5519 68.4782C31.02 68.01 31.2542 67.3076 31.2542 66.6053L30.6184 57.1742L42.8544 44.9382L57.592 57.1237C57.709 57.2407 58.0602 57.3578 58.2943 57.3578C58.5285 57.3578 58.8797 57.2408 59.1137 57.1237C59.5819 56.7725 59.5819 56.0702 59.2307 55.602L46.9359 40.7397L56.4794 31.1962L66.0201 31.8394H66.1371C66.8395 31.8394 67.4248 31.4882 67.893 31.137L68.7123 30.3177C69.1805 29.8495 69.4147 29.2642 69.4147 28.5618C69.4148 27.8595 69.1806 27.2743 68.7125 26.806ZM46.2858 21.8209L36.6956 20.0771L40.6188 16.1539L46.2858 21.8209ZM34.682 22.0906L49.1941 24.7293L54.4313 29.9665L53.2618 31.1361L53.3037 30.9515L35.7241 26.9603L35.7108 27.0186L33.0099 23.7625L34.682 22.0906ZM51.4635 32.9345L45.5351 38.8629L38.1015 29.901L51.4635 32.9345ZM17.6755 27.1572C16.8562 28.0937 15.5685 28.5618 14.398 28.5618C13.2275 28.5618 12.0568 28.0937 11.1205 27.1572C10.184 26.3378 9.71577 25.0501 9.71577 23.8796C9.71577 22.7091 10.184 21.5384 11.1205 20.6021L12.1618 19.5608L19.3383 25.4946L17.6755 27.1572ZM40.8283 43.3106L20.9973 35.7754L25.8696 30.903L40.8283 43.3106ZM19.1824 37.5902L39.2012 45.1969L36.074 48.3241L15.7281 41.3637L15.5685 41.2041L19.1824 37.5902ZM19.4893 45.1248L34.2304 50.1678L29.3813 55.0168L19.4893 45.1248ZM27.9767 67.5418H27.8596L2.92651 42.6087V42.4917L3.86301 41.6723C3.746 41.7893 3.746 41.6723 3.86301 41.6723L13.3446 42.3747L14.0983 43.1224L14.0498 43.2638L14.3413 43.3636L20.8045 49.7759L28.2178 57.2399L28.796 66.7223L27.9767 67.5418ZM49.5151 47.291L13.8766 17.8458L16.0367 15.6857L16.8561 16.505C17.0902 16.7392 17.3242 16.8562 17.6754 16.8562C18.0266 16.8562 18.2607 16.7392 18.4948 16.505C18.9629 16.0368 18.9629 15.3345 18.4948 14.8662L15.2174 11.5886C14.7492 11.1205 14.0468 11.1205 13.5785 11.5886C13.1102 12.0568 13.1103 12.7592 13.5785 13.2275L14.3979 14.0468L12.0818 16.3629L11.1203 15.5685C10.1838 14.7492 9.71563 13.4615 9.71563 12.291C9.71563 11.1205 10.1838 9.83278 11.1203 9.01343C11.9397 8.07692 13.1103 7.60874 14.3979 7.60874C15.6855 7.60874 16.8561 8.07693 17.6754 8.89641L29.8805 23.6143L29.8492 23.6456L45.3008 42.3747L45.3757 42.2998L49.5151 47.291ZM67.0736 28.679L66.1371 29.4983L56.6555 28.796L41.7893 13.9298L41.204 4.33119L42.0233 3.51184H42.1404L67.0735 28.562V28.679H67.0736Z" fill="white"/>
</g>
<defs>
<clipPath id="clip0_19_2709">
<rect width="70" height="70" fill="white"/>
</clipPath>
</defs>
</svg>
