<svg width="75" height="75" viewBox="0 0 75 75" fill="none" xmlns="http://www.w3.org/2000/svg">
<g clip-path="url(#clip0_19_2715)">
<path d="M36.0622 19.5884C33.5907 19.5884 31.58 21.5991 31.58 24.0706C31.58 26.5421 33.5907 28.5528 36.0622 28.5528C38.5335 28.5528 40.5442 26.5421 40.5442 24.0706C40.5442 21.5991 38.5335 19.5884 36.0622 19.5884ZM36.0622 25.9025C35.0521 25.9025 34.2303 25.0808 34.2303 24.0706C34.2303 23.0605 35.0521 22.2387 36.0622 22.2387C37.0723 22.2387 37.8939 23.0605 37.8939 24.0706C37.8939 25.0808 37.0722 25.9025 36.0622 25.9025Z" fill="white"/>
<path d="M73.6748 20.1844H69.1646C69.0562 16.0008 65.622 12.6303 61.4128 12.6303H57.3719V9.76268C57.3719 9.03085 56.7788 8.43753 56.0468 8.43753C55.3148 8.43753 54.7216 9.03085 54.7216 9.76268V12.6301H14.4481V9.76268C14.4481 9.03085 13.8549 8.43753 13.1229 8.43753C12.3909 8.43753 11.7978 9.03085 11.7978 9.76268V12.6301H7.75692C3.47968 12.6303 0 16.11 0 20.3872V37.09C0 39.6385 2.07342 41.712 4.62196 41.712H6.77737V42.3249H4.83946C4.10745 42.3249 3.51431 42.9182 3.51431 43.65C3.51431 44.3819 4.10745 44.9752 4.83946 44.9752H6.77754V46.5922H4.62196C2.07342 46.5921 0 48.6655 0 51.214V65.2375C0 65.9694 0.593139 66.5627 1.32515 66.5627H67.8445C68.5765 66.5627 69.1697 65.9694 69.1697 65.2375V41.3858H73.6748C74.4069 41.3858 75 40.7925 75 40.0606V21.5096C75 20.7775 74.4069 20.1844 73.6748 20.1844ZM9.42768 44.975H11.3658C12.0978 44.975 12.6909 44.3817 12.6909 43.6499C12.6909 42.918 12.0978 42.3247 11.3658 42.3247H9.42768V41.7118H11.3322C13.8807 41.7118 15.954 39.6384 15.954 37.0898V36.4488C15.954 35.1984 16.9712 34.1814 18.2216 34.1814H40.4052C41.6556 34.1814 42.6728 35.1986 42.6728 36.4488V44.3245C42.6728 45.5747 41.6556 46.5919 40.4052 46.5919H9.42768V44.975ZM66.5194 63.9122H2.65031V51.2138C2.65031 50.1267 3.5348 49.2422 4.62196 49.2422H40.4052C43.117 49.2422 45.3231 47.0361 45.3231 44.3245V36.4488C45.3231 33.737 43.117 31.5311 40.4052 31.5311H18.2217C15.51 31.5311 13.3038 33.7372 13.3038 36.4488V37.0898C13.3038 38.177 12.4193 39.0615 11.3324 39.0615H4.62196C3.5348 39.0615 2.65031 38.177 2.65031 37.0898V20.3871C2.65031 17.5712 4.94123 15.2804 7.75692 15.2804H61.4128C64.2286 15.2804 66.5194 17.5712 66.5194 20.3871V63.9122ZM72.3497 38.7355H69.1697V22.8345H72.3497V38.7355Z" fill="white"/>
<path d="M61.4605 30.2372H52.8464C52.1144 30.2372 51.5213 30.8305 51.5213 31.5623C51.5213 32.2942 52.1144 32.8875 52.8464 32.8875H61.4605C62.1925 32.8875 62.7856 32.2942 62.7856 31.5623C62.7856 30.8305 62.1923 30.2372 61.4605 30.2372Z" fill="white"/>
<path d="M61.4605 25.4847H52.8464C52.1144 25.4847 51.5213 26.078 51.5213 26.8098C51.5213 27.5417 52.1144 28.135 52.8464 28.135H61.4605C62.1925 28.135 62.7856 27.5417 62.7856 26.8098C62.7856 26.078 62.1923 25.4847 61.4605 25.4847Z" fill="white"/>
<path d="M61.4605 20.7321H52.8464C52.1144 20.7321 51.5213 21.3255 51.5213 22.0573C51.5213 22.7891 52.1144 23.3825 52.8464 23.3825H61.4605C62.1925 23.3825 62.7856 22.7891 62.7856 22.0573C62.7856 21.3255 62.1923 20.7321 61.4605 20.7321Z" fill="white"/>
<path d="M27.7242 19.7612C27.7231 19.7602 27.7219 19.7593 27.7208 19.7582C26.5702 18.6091 25.041 17.9762 23.4146 17.9762C21.7866 17.9762 20.2561 18.6101 19.1052 19.7612C17.9539 20.9124 17.3199 22.4428 17.3199 24.0708C17.3199 25.6986 17.9539 27.2291 19.105 28.3802C20.2561 29.5313 21.7866 30.1653 23.4146 30.1653C25.0424 30.1653 26.5729 29.5313 27.724 28.3802C27.7242 28.3802 27.7242 28.3802 27.7242 28.3802C30.099 26.0052 30.1003 22.1416 27.7275 19.7651C27.7263 19.7637 27.7254 19.7625 27.7242 19.7612ZM20.9793 21.6352C21.6299 20.9846 22.4946 20.6265 23.4146 20.6265C23.872 20.6265 24.3159 20.7153 24.7267 20.8846L20.2286 25.3827C20.0595 24.9721 19.9706 24.5283 19.9706 24.0706C19.9704 23.1506 20.3288 22.2857 20.9793 21.6352ZM25.8502 26.5061C25.1995 27.1567 24.3346 27.5148 23.4148 27.5148C22.9571 27.5148 22.5135 27.4259 22.1027 27.2568L26.5992 22.7603C27.1102 24.0072 26.8611 25.4951 25.8502 26.5061Z" fill="white"/>
</g>
<defs>
<clipPath id="clip0_19_2715">
<rect width="75" height="75" fill="white"/>
</clipPath>
</defs>
</svg>
