<svg width="58" height="48" viewBox="0 0 58 48" fill="none" xmlns="http://www.w3.org/2000/svg">
<path d="M43.1376 32.1066L50.2352 4.36118H58V0H46.8424L45.1692 6.54049L0 6.50823L4.80216 32.1064H43.1376V32.1066ZM44.0538 10.9009L39.7448 27.7453H8.42826L5.26308 10.8732L44.0538 10.9009Z" fill="white"/>
<path d="M37.1578 48C41.0097 48 44.1434 44.8713 44.1434 41.0257C44.1434 37.1801 41.0097 34.0515 37.1578 34.0515H10.8384C6.98653 34.0515 3.8527 37.1801 3.8527 41.0257C3.8527 44.8713 6.98647 48 10.8384 48C14.6904 48 17.8241 44.8713 17.8241 41.0257C17.8241 40.1021 17.6429 39.2202 17.3149 38.4127H30.6813C30.3532 39.2202 30.172 40.1021 30.172 41.0257C30.1721 44.8713 33.3058 48 37.1578 48ZM13.4558 41.0257C13.4558 42.4666 12.2817 43.6388 10.8384 43.6388C9.39522 43.6388 8.22104 42.4666 8.22104 41.0257C8.22104 39.5849 9.39516 38.4127 10.8384 38.4127C12.2817 38.4127 13.4558 39.5849 13.4558 41.0257ZM39.7752 41.0257C39.7752 42.4666 38.601 43.6388 37.1578 43.6388C35.7146 43.6388 34.5405 42.4666 34.5405 41.0257C34.5405 39.5849 35.7146 38.4127 37.1578 38.4127C38.601 38.4127 39.7752 39.5849 39.7752 41.0257Z" fill="white"/>
</svg>
