<svg width="96" height="112" viewBox="0 0 96 112" fill="none" xmlns="http://www.w3.org/2000/svg">
<path d="M74.326 42.3844L63.943 40.1309L54.8496 31.0077C53.5713 29.4733 51.6711 28.4757 49.516 28.4757H44.8198C43.9203 28.4757 43.0684 28.6595 42.2784 28.969L33.0642 26.7083L25.1644 17.6923C23.8059 16.1361 21.4508 15.9923 19.9037 17.3428C18.3566 18.7009 18.1997 21.0562 19.5578 22.6035L28.2297 32.5041C28.7319 33.0812 29.4017 33.4871 30.1444 33.6692L37.8479 35.5584V60.6182L30.5558 84.4691C29.9514 86.439 31.0621 88.523 33.0316 89.1257C34.965 89.7207 37.0724 88.6433 37.6839 86.6499L44.43 64.5898H50.397L52.6034 71.0883L49.1482 84.6387C48.6386 86.6334 49.8436 88.6629 51.8387 89.1728C53.8187 89.6731 55.8578 88.4864 56.3711 86.4806L60.099 71.8582C60.2771 71.1591 60.2481 70.4222 60.0191 69.7396L56.4875 59.3403V43.211L59.4398 46.1724C59.9461 46.6802 60.5872 47.0317 61.2895 47.1828L72.7465 49.6693C74.7416 50.1064 76.7437 48.8392 77.1806 46.8166C77.6172 44.8054 76.3394 42.8196 74.326 42.3844Z" fill="white"/>
<path d="M47.1674 24.8643C52.1005 24.8643 56.1015 20.865 56.1015 15.9321C56.1015 10.9992 52.1007 7 47.1674 7C42.2347 7 38.2339 10.9992 38.2339 15.9321C38.2339 20.865 42.2349 24.8643 47.1674 24.8643Z" fill="white"/>
<path d="M71.3264 87.5762L67.5947 92.3946H26.7369L23.0056 87.5762C22.066 86.3587 20.3108 86.1329 19.0843 87.0759C17.8648 88.0225 17.6388 89.7773 18.5858 90.9984L23.1541 96.9015C23.6821 97.5861 24.4979 97.9863 25.3641 97.9863H28.5349C28.058 98.7074 27.7087 99.5224 27.7087 100.455C27.7087 102.965 29.7436 105 32.2556 105C34.764 105 36.8029 102.965 36.8029 100.455C36.8029 99.5224 36.4532 98.7074 35.9726 97.9863H58.3585C57.8818 98.7074 57.5319 99.5224 57.5319 100.455C57.5319 102.965 59.5668 105 62.079 105C64.5874 105 66.6261 102.965 66.6261 100.455C66.6261 99.5224 66.2764 98.7074 65.796 97.9863H68.9667C69.8332 97.9863 70.649 97.5859 71.1765 96.9015L75.7457 90.9984C76.6922 89.7773 76.4662 88.0225 75.2467 87.0759C74.024 86.1309 72.2692 86.3549 71.3264 87.5762Z" fill="white"/>
</svg>
