<svg width="50" height="432" viewBox="0 0 50 432" fill="none" xmlns="http://www.w3.org/2000/svg">
<path d="M5.24999 428.937C4.04166 427.937 3.29166 426.729 2.99999 425.312C2.83333 424.687 2.68749 424.062 2.56249 423.437C2.43749 422.812 2.18749 422.167 1.81249 421.5C1.10416 420.25 0.749994 419.396 0.749994 418.937C0.749994 418.437 0.791661 418.062 0.874994 417.812C0.958327 417.521 1.02083 417.208 1.06249 416.875C1.10416 416.5 1.12499 416.125 1.12499 415.75C1.12499 415.333 1.16666 414.875 1.24999 414.375C1.45833 412.792 2.49999 411.125 4.37499 409.375C5.58333 408.25 6.83333 407.562 8.12499 407.312C9.41666 407.021 10.6875 406.896 11.9375 406.937C13.7292 406.979 15.0625 406.854 15.9375 406.562C16.8125 406.271 17.4792 406.083 17.9375 406C18.3958 405.917 19.0417 405.979 19.875 406.187C20.6667 406.354 21.2292 406.646 21.5625 407.062C21.8958 407.479 22.1042 407.937 22.1875 408.437C22.2708 408.937 22.2917 409.417 22.25 409.875C22.2083 410.333 22.1875 410.708 22.1875 411C22.1875 411.292 22.2708 411.5 22.4375 411.625C22.5625 411.708 22.7083 411.812 22.875 411.937C23.1667 412.229 23.1875 412.792 22.9375 413.625C22.6875 414.458 22.1667 415.146 21.375 415.687C20.5417 416.229 19.4792 416.292 18.1875 415.875C17.7708 415.75 17.3958 415.625 17.0625 415.5C16.6875 415.375 16.375 415.354 16.125 415.437C15.5417 415.604 15.2292 416 15.1875 416.625C15.1458 417.25 15.3125 417.792 15.6875 418.25C16.2708 418.875 17 419.292 17.875 419.5C18.7083 419.667 19.3125 419.729 19.6875 419.687C20.0625 419.604 20.4583 419.562 20.875 419.562C21.2917 419.562 21.7292 419.542 22.1875 419.5C23.2708 419.333 24 419.083 24.375 418.75C24.75 418.375 24.9583 418.062 25 417.812C25.0417 417.562 25.0625 417.333 25.0625 417.125C25.0208 416.875 25 416.625 25 416.375C25 416.125 25.1042 415.771 25.3125 415.312C25.5208 414.854 25.7292 414.396 25.9375 413.937C26.1458 413.437 26.4792 413 26.9375 412.625C27.3958 412.25 27.6875 411.937 27.8125 411.687C27.9375 411.396 28.0625 411.146 28.1875 410.937C28.2708 410.729 28.3542 410.542 28.4375 410.375C28.5208 410.167 28.7292 410 29.0625 409.875C30.5208 409.333 32.2083 409.208 34.125 409.5C34.8333 409.583 35.3958 409.667 35.8125 409.75C36.2292 409.792 36.6042 409.833 36.9375 409.875C37.2292 409.917 37.5 409.958 37.75 410C37.9583 410.042 38.2917 410.062 38.75 410.062C40.4583 410.062 41.7708 410.354 42.6875 410.937C43.6042 411.479 44.2292 412.042 44.5625 412.625C44.8958 413.208 45.1458 413.583 45.3125 413.75C45.4792 413.917 45.6875 414.062 45.9375 414.187C46.1875 414.271 46.4583 414.417 46.75 414.625C47.4583 415.125 47.9583 415.854 48.25 416.812C48.5833 417.896 48.7292 419.062 48.6875 420.312C48.6875 421.521 48.625 422.458 48.5 423.125C48.375 423.792 48.0625 424.417 47.5625 425C47.0625 425.542 46.5208 426 45.9375 426.375C45.3125 426.708 44.9792 426.979 44.9375 427.187C44.8542 427.396 44.8125 427.625 44.8125 427.875V428.625C44.8125 429.292 44.625 429.75 44.25 430C43.8333 430.208 43.4583 430.292 43.125 430.25C42.75 430.167 42.2292 430.146 41.5625 430.187C40.8958 430.187 40.2708 430.187 39.6875 430.187C39.1042 430.146 38.6042 429.896 38.1875 429.437C37.3958 428.437 36.9792 427.562 36.9375 426.812C36.8958 426.062 36.75 425.562 36.5 425.312C36.25 425.062 36.0208 424.875 35.8125 424.75C35.6042 424.583 35.4792 424.375 35.4375 424.125C35.3958 423.833 35.4167 423.542 35.5 423.25C35.7083 422.542 36.125 422.187 36.75 422.187C37.375 422.187 37.9583 422.187 38.5 422.187C39 422.146 39.4583 422.062 39.875 421.937C40.9583 421.646 41.4583 421.104 41.375 420.312C41.2917 419.437 40.4167 418.958 38.75 418.875C38.2917 418.875 37.8542 418.875 37.4375 418.875H36.0625C34.1042 418.875 32.6042 419.812 31.5625 421.687C31.1458 422.437 30.75 423.167 30.375 423.875C30 424.583 29.5417 425.25 29 425.875C27.75 427.292 26.3125 428.187 24.6875 428.562C23.0625 428.937 22.0208 429.208 21.5625 429.375C21.0625 429.542 20.7292 429.708 20.5625 429.875C20.3958 430 20.2708 430.146 20.1875 430.312C20.1042 430.479 19.8542 430.708 19.4375 431C18.8125 431.458 18.0833 431.562 17.25 431.312C16.4167 431.062 15.7292 430.854 15.1875 430.687C14.6042 430.521 13.9792 430.437 13.3125 430.437C12.6458 430.437 12 430.479 11.375 430.562C10.7083 430.604 10.0417 430.625 9.37499 430.625C7.87499 430.542 6.49999 429.979 5.24999 428.937Z" fill="#22FF64"/>
<path d="M21.3125 375.007C23.0208 375.841 24.2708 376.424 25.0625 376.757C25.8542 377.049 26.4583 377.195 26.875 377.195C27.25 377.195 27.7917 377.07 28.5 376.82C29.1667 376.528 29.9375 376.174 30.8125 375.757C31.6458 375.341 32.5833 374.882 33.625 374.382C34.6667 373.841 35.6458 373.382 36.5625 373.007C37.4375 372.632 38.125 372.382 38.625 372.257C39.0833 372.091 39.5417 371.966 40 371.882C40.7917 371.799 41.6875 371.841 42.6875 372.007C43.6875 372.132 44.5 372.174 45.125 372.132C45.7083 372.049 46.25 372.028 46.75 372.07C47.25 372.07 47.6667 372.153 48 372.32C48.2917 372.487 48.4583 372.987 48.5 373.82C48.5833 374.612 48.3125 375.362 47.6875 376.07C47.0625 376.737 46.3333 377.32 45.5 377.82C44.625 378.278 43.7708 378.674 42.9375 379.007C42.1042 379.299 41.4167 379.695 40.875 380.195C40.3333 380.695 39.5417 381.132 38.5 381.507C37.4583 381.841 36.4583 382.132 35.5 382.382C34.5417 382.632 33.7083 382.903 33 383.195C32.2917 383.487 31.8958 383.903 31.8125 384.445C31.7292 384.945 31.8542 385.278 32.1875 385.445C32.5208 385.57 32.9792 385.632 33.5625 385.632C34.1042 385.591 34.7292 385.528 35.4375 385.445C36.1042 385.362 36.8542 385.32 37.6875 385.32C38.4792 385.278 39.2292 385.32 39.9375 385.445C40.6458 385.528 41.3333 385.862 42 386.445C42.625 386.987 43.2708 387.362 43.9375 387.57C44.6042 387.737 45.25 387.882 45.875 388.007C46.5 388.132 47.0417 388.299 47.5 388.507C47.9583 388.716 48.1875 389.07 48.1875 389.57C48.2292 390.57 47.6667 391.487 46.5 392.32C45.3333 393.153 43.8125 393.632 41.9375 393.757C40.8542 393.882 40.1458 394.195 39.8125 394.695C39.5208 395.153 38.375 395.299 36.375 395.132C35.8333 395.091 35.3542 395.007 34.9375 394.882C33.6458 394.632 31.8125 394.653 29.4375 394.945C27.0208 395.195 25.6042 395.362 25.1875 395.445C24.7292 395.528 24.2083 395.632 23.625 395.757C23 395.841 22.3542 395.924 21.6875 396.007C20.9792 396.049 20.2708 396.07 19.5625 396.07C18.8125 396.07 18.0417 395.987 17.25 395.82C16.4167 395.612 15.7292 395.507 15.1875 395.507C14.6458 395.466 14.1667 395.466 13.75 395.507C12.4167 395.716 11.3542 395.799 10.5625 395.757C9.72916 395.674 8.85416 395.695 7.93749 395.82C7.02083 395.945 6.12499 396.028 5.24999 396.07C4.37499 396.112 3.58333 396.049 2.87499 395.882C2.12499 395.674 1.58333 395.299 1.24999 394.757C0.916661 394.174 0.791661 393.674 0.874994 393.257C0.916661 392.841 0.999994 392.403 1.12499 391.945C1.49999 390.57 1.64583 389.612 1.56249 389.07C0.770827 385.903 2.79166 384.632 7.62499 385.257C8.41666 385.382 9.12499 385.507 9.74999 385.632C11.25 385.924 12.375 386.007 13.125 385.882C13.625 385.799 14.1667 385.757 14.75 385.757C15.3333 385.716 15.875 385.674 16.375 385.632C17.5417 385.549 18.125 385.278 18.125 384.82C18.125 384.112 16.9167 383.216 14.5 382.132C13.9583 381.882 13.5208 381.716 13.1875 381.632C12.8542 381.507 12.4583 381.362 12 381.195C11.5417 380.987 11.0833 380.757 10.625 380.507C9.49999 379.841 8.79166 379.132 8.49999 378.382C7.33333 378.924 6.33333 379.028 5.49999 378.695C4.62499 378.32 3.97916 378.028 3.56249 377.82C3.14583 377.612 2.81249 377.382 2.56249 377.132C2.10416 376.674 1.99999 376.007 2.24999 375.132C2.49999 374.216 2.52083 373.424 2.31249 372.757C2.10416 372.091 1.89583 371.445 1.68749 370.82C1.43749 370.153 1.27083 369.507 1.18749 368.882C1.06249 368.257 1.18749 367.737 1.56249 367.32C1.93749 366.862 2.37499 366.591 2.87499 366.507C3.33333 366.382 3.83333 366.382 4.37499 366.507C5.49999 366.757 6.60416 367.382 7.68749 368.382C9.97916 368.966 11.7917 369.924 13.125 371.257C15.0833 371.424 16.7292 372.049 18.0625 373.132C18.5208 373.549 19.6042 374.174 21.3125 375.007Z" fill="#22FF64"/>
<path d="M48.75 355.202C48.875 355.619 48.8333 356.098 48.625 356.64C48.4583 357.14 48.125 357.494 47.625 357.702C47.0833 357.911 46.4792 358.057 45.8125 358.14C45.1042 358.182 44.3542 358.182 43.5625 358.14C42.7708 358.098 42 358.077 41.25 358.077C39.5833 358.077 38.5208 358.348 38.0625 358.89C37.2292 360.015 35.1042 360.473 31.6875 360.265C29.7292 360.057 28.1667 359.827 27 359.577C25.0833 359.161 23.4583 358.973 22.125 359.015C20.7917 359.015 19.75 358.973 19 358.89C18.25 358.765 17.625 358.64 17.125 358.515C16.625 358.348 16.1042 358.161 15.5625 357.952C15.0208 357.744 14.125 357.557 12.875 357.39C9.74999 356.973 7.81249 356.598 7.06249 356.265C6.02083 355.807 4.95833 355.265 3.87499 354.64C2.74999 353.973 1.99999 353.432 1.62499 353.015C0.916661 352.057 0.854161 350.682 1.43749 348.89C1.89583 347.557 2.04166 346.327 1.87499 345.202C1.70833 344.036 1.64583 343.161 1.68749 342.577C1.68749 341.952 1.91666 341.265 2.37499 340.515C2.79166 339.765 3.31249 339.182 3.93749 338.765C4.52083 338.348 5.16666 338.057 5.87499 337.89C7.08333 337.598 8.62499 337.577 10.5 337.827C12.3333 338.077 13.8333 338.182 15 338.14C16.125 338.057 17.2083 337.807 18.25 337.39C19.25 336.932 20.0625 336.64 20.6875 336.515C21.2708 336.348 21.875 336.223 22.5 336.14C23.0833 336.015 23.7292 335.932 24.4375 335.89C25.1042 335.807 25.875 335.682 26.75 335.515C27.625 335.307 28.3333 335.202 28.875 335.202C29.375 335.161 29.7917 335.161 30.125 335.202C30.4583 335.244 30.7708 335.307 31.0625 335.39C31.3125 335.432 31.7292 335.411 32.3125 335.327C32.8542 335.202 33.4583 335.202 34.125 335.327C34.7917 335.411 35.4375 335.515 36.0625 335.64C37.9792 336.098 39.3333 336.286 40.125 336.202C41.5417 336.036 42.5625 336.036 43.1875 336.202C43.7708 336.369 44.25 336.536 44.625 336.702C45 336.827 45.5208 336.994 46.1875 337.202C46.8542 337.369 47.4583 337.744 48 338.327C48.5417 338.911 48.7083 339.473 48.5 340.015C48.2917 340.515 48 340.848 47.625 341.015C47.2083 341.14 46.7917 341.265 46.375 341.39C45.9583 341.473 45.5833 341.598 45.25 341.765C44.9167 341.89 44.7292 342.14 44.6875 342.515C44.6042 343.182 44.2292 343.536 43.5625 343.577C42.8542 343.619 42.25 343.619 41.75 343.577C41.2083 343.494 40.6667 343.515 40.125 343.64C39.5833 343.765 39.0625 343.973 38.5625 344.265C37.2708 345.015 36.5625 345.89 36.4375 346.89C36.2292 348.39 36.9583 349.432 38.625 350.015C39.0417 350.14 39.6042 350.244 40.3125 350.327C40.9792 350.369 41.5833 350.536 42.125 350.827C42.6667 351.077 43.125 351.369 43.5 351.702C43.875 351.994 44.2292 352.286 44.5625 352.577C44.8542 352.827 45.2292 352.994 45.6875 353.077C47.4792 353.411 48.5 354.119 48.75 355.202ZM22.5625 349.64C24.8125 350.473 26.6042 350.577 27.9375 349.952C28.6875 349.536 29.0833 348.994 29.125 348.327C29.25 347.119 29.1667 346.411 28.875 346.202C28.5417 345.952 28.2083 345.682 27.875 345.39C27.5 345.057 26.9583 344.932 26.25 345.015C25.5 345.098 24.8542 345.161 24.3125 345.202C23.7292 345.244 23.0833 345.452 22.375 345.827C21.6667 346.161 20.9167 346.39 20.125 346.515C19.2917 346.64 18.5 346.723 17.75 346.765C16.0833 346.932 15.25 347.307 15.25 347.89C15.25 348.307 15.4792 348.577 15.9375 348.702C16.3542 348.786 16.9167 348.848 17.625 348.89C19.7917 348.932 21.4375 349.182 22.5625 349.64Z" fill="#22FF64"/>
<path d="M2.12499 324.272C2.20833 323.314 2.24999 322.481 2.24999 321.772C2.20833 321.022 2.20833 319.918 2.24999 318.46C2.37499 316.043 2.20833 314.335 1.74999 313.335C0.708327 311.293 0.583327 309.647 1.37499 308.397C1.70833 307.814 1.91666 307.252 1.99999 306.71C2.08333 306.168 1.83333 305.397 1.24999 304.397C0.791661 303.314 0.687494 302.418 0.937494 301.71C1.18749 301.002 1.49999 300.481 1.87499 300.147C2.24999 299.814 2.91666 299.606 3.87499 299.522C4.79166 299.397 5.70833 299.377 6.62499 299.46C7.54166 299.502 8.39583 299.585 9.18749 299.71C11.3125 299.96 12.7083 300.064 13.375 300.022C14.0417 299.939 14.7292 299.856 15.4375 299.772C16.1458 299.647 16.8333 299.606 17.5 299.647C19.125 299.731 20.0417 300.397 20.25 301.647C20.375 302.564 20.1667 303.231 19.625 303.647C19.0417 304.064 18.4167 304.418 17.75 304.71C17.0417 304.96 16.4167 305.231 15.875 305.522C15.3333 305.772 15.1458 306.147 15.3125 306.647C15.4375 307.147 15.9792 307.46 16.9375 307.585C17.8542 307.71 18.9583 307.752 20.25 307.71C21.5 307.668 22.8125 307.585 24.1875 307.46C25.5208 307.335 26.6667 307.252 27.625 307.21C28.5417 307.168 29.4792 307.127 30.4375 307.085C31.3958 307.002 32.2917 306.96 33.125 306.96C34.9167 306.96 36.1458 307.21 36.8125 307.71C37.1458 307.96 37.5417 308.085 38 308.085C38.4583 308.085 38.9375 308.043 39.4375 307.96C39.9375 307.835 40.4375 307.71 40.9375 307.585C41.4375 307.46 42.0417 307.397 42.75 307.397C44.4167 307.397 45.5833 308.147 46.25 309.647C46.5 310.189 46.9167 310.689 47.5 311.147C48.0833 311.606 48.4583 311.96 48.625 312.21C48.8333 312.418 48.8958 312.689 48.8125 313.022C48.7708 313.314 48.625 313.543 48.375 313.71C48.1667 313.835 47.9375 313.96 47.6875 314.085C47.0208 314.335 46.5833 314.689 46.375 315.147C46.25 315.689 45.7917 316.022 45 316.147C44.2083 316.231 43.5208 316.293 42.9375 316.335C42.3125 316.335 41.5625 316.377 40.6875 316.46C39.8125 316.543 39.1042 316.814 38.5625 317.272C38.0208 317.731 37.6875 318.106 37.5625 318.397C37.3958 318.689 37.0417 318.877 36.5 318.96C35.9167 319.043 35.3333 319.043 34.75 318.96C34.1667 318.835 33.5208 318.689 32.8125 318.522C30.7708 318.022 28.8542 317.752 27.0625 317.71C23.7292 317.585 21.5208 317.585 20.4375 317.71C18.2708 317.877 17.1875 318.46 17.1875 319.46C17.2292 319.96 17.4583 320.314 17.875 320.522C18.25 320.731 18.7083 320.96 19.25 321.21C20.625 321.793 21 322.856 20.375 324.397C20.125 324.939 19.7292 325.293 19.1875 325.46C18.6458 325.585 18.0208 325.668 17.3125 325.71C16.5625 325.71 15.7917 325.731 15 325.772C14.1667 325.772 13.3958 325.918 12.6875 326.21C11.9375 326.46 11.2292 326.71 10.5625 326.96C9.89583 327.21 9.22916 327.314 8.56249 327.272C7.89583 327.231 7.24999 327.085 6.62499 326.835C5.99999 326.543 5.37499 326.46 4.74999 326.585C4.12499 326.668 3.52083 326.543 2.93749 326.21C2.31249 325.835 2.04166 325.189 2.12499 324.272Z" fill="#22FF64"/>
<path d="M13.4375 274.092C13.8125 275.509 16.2292 275.78 20.6875 274.905C21.8958 274.613 22.9167 274.467 23.75 274.467C24.5417 274.426 25.4167 274.53 26.375 274.78C27.3333 275.03 28.1042 275.155 28.6875 275.155C29.2708 275.155 29.9583 275.238 30.75 275.405C31.625 275.363 32.5208 275.384 33.4375 275.467C34.3125 275.509 35.1667 275.551 36 275.592C38.0417 275.717 39.25 275.738 39.625 275.655C40 275.572 40.25 275.447 40.375 275.28C40.4583 275.072 40.5417 274.842 40.625 274.592C40.8333 274.009 41.1042 273.655 41.4375 273.53C41.7708 273.405 42.25 273.363 42.875 273.405C43.4583 273.405 44.0833 273.467 44.75 273.592C46.3333 273.967 47.3542 274.488 47.8125 275.155C48.0625 275.53 48.1458 275.926 48.0625 276.342C47.9792 276.717 47.8958 277.134 47.8125 277.592C47.5625 279.009 47.6875 280.217 48.1875 281.217C49.5208 283.676 49.5208 285.572 48.1875 286.905C47.6458 287.447 46.8125 287.78 45.6875 287.905C43.6458 288.072 42.3333 287.967 41.75 287.592C41.1667 287.176 40.8125 286.842 40.6875 286.592C40.5208 286.301 40.375 286.051 40.25 285.842C40.0417 285.384 39.6875 285.155 39.1875 285.155C38.8125 285.155 38.4167 285.113 38 285.03C37.5417 284.905 37.0625 284.801 36.5625 284.717C35.3542 284.509 34.3542 284.613 33.5625 285.03C32.6458 285.488 31.8958 285.697 31.3125 285.655C30.7292 285.572 30.2083 285.509 29.75 285.467L28.25 285.217C27.0417 285.134 26.0208 285.155 25.1875 285.28C24.3125 285.405 23.4167 285.509 22.5 285.592C21.5417 285.634 20.6458 285.655 19.8125 285.655C18.9792 285.613 18.1875 285.592 17.4375 285.592C15.6875 285.592 14.6458 285.78 14.3125 286.155C13.9792 286.488 13.8125 286.801 13.8125 287.092C13.7708 287.384 13.75 287.676 13.75 287.967C13.8333 288.759 13.7083 289.259 13.375 289.467C12.9167 289.926 12.3333 290.155 11.625 290.155C10.9167 290.155 10.375 290.03 9.99999 289.78C9.62499 289.488 9.20833 289.301 8.74999 289.217C8.24999 289.134 7.72916 289.092 7.18749 289.092C5.93749 289.009 5.12499 289.051 4.74999 289.217C4.33333 289.384 3.97916 289.509 3.68749 289.592C3.35416 289.634 3.04166 289.655 2.74999 289.655C1.54166 289.655 0.916661 288.801 0.874994 287.092C0.833327 286.051 0.854161 284.988 0.937494 283.905C0.979161 282.822 0.937494 281.967 0.812494 281.342C0.395827 279.176 0.229161 277.447 0.312494 276.155C0.395827 274.822 0.499994 273.967 0.624994 273.592C1.04166 272.551 2.18749 271.988 4.06249 271.905C4.93749 271.863 5.85416 271.842 6.81249 271.842C7.77083 271.842 8.74999 271.801 9.74999 271.717C11.8333 271.551 13.0625 272.342 13.4375 274.092Z" fill="#22FF64"/>
<path d="M2.37499 254.85C1.54166 252.767 1.45833 251.642 2.12499 251.475C1.87499 250.433 2.18749 249.662 3.06249 249.162C3.35416 248.996 3.95833 248.683 4.87499 248.225C5.79166 247.725 6.77083 247.204 7.81249 246.662C8.85416 246.079 9.83333 245.537 10.75 245.037C11.6667 244.537 12.2917 244.204 12.625 244.037C12.9167 243.871 13.0833 243.662 13.125 243.412C13.1667 243.162 13.1042 242.912 12.9375 242.662C12.5208 242.121 11.8958 241.975 11.0625 242.225C10.2292 242.433 9.58333 242.537 9.12499 242.537C8.62499 242.496 8.16666 242.433 7.74999 242.35C6.58333 242.1 5.64583 242.058 4.93749 242.225C4.22916 242.392 3.56249 242.475 2.93749 242.475C1.68749 242.475 1.06249 241.454 1.06249 239.412C1.06249 238.996 1.08333 238.517 1.12499 237.975C1.12499 237.433 1.08333 236.621 0.999994 235.537C0.874994 234.454 1.16666 233.517 1.87499 232.725C2.54166 231.892 3.74999 231.621 5.49999 231.912C7.87499 232.287 9.47916 232.454 10.3125 232.412C11.1042 232.371 11.8542 232.35 12.5625 232.35C13.3125 232.35 14.4167 232.475 15.875 232.725C18.4583 233.183 20.2917 233.308 21.375 233.1C22.3333 232.933 23.0417 232.85 23.5 232.85H24.5C24.625 232.85 24.8958 232.808 25.3125 232.725C25.7292 232.642 26.1667 232.662 26.625 232.787C27.0417 232.912 27.5 232.933 28 232.85C28.5 232.767 29.0833 232.871 29.75 233.162C30.375 233.454 31.0833 233.6 31.875 233.6C32.625 233.558 33.3125 233.6 33.9375 233.725C34.5625 233.85 35.2917 233.787 36.125 233.537C37.4167 233.162 39.6875 233.475 42.9375 234.475C43.7292 234.642 44.25 234.912 44.5 235.287C44.7083 235.621 44.875 235.871 45 236.037C45.125 236.204 45.3958 236.329 45.8125 236.412C46.6458 236.621 47.0208 237.058 46.9375 237.725C46.8125 238.6 45.9375 239.308 44.3125 239.85C42.0625 240.6 40.75 241.204 40.375 241.662C40 242.121 39.4792 242.475 38.8125 242.725C38.1458 242.933 37.4583 243.121 36.75 243.287C35 243.621 34 243.954 33.75 244.287C33.4583 244.621 32.9167 244.892 32.125 245.1C31.3333 245.308 30.7708 245.517 30.4375 245.725C30.1042 245.933 29.7292 246.142 29.3125 246.35C28.8958 246.517 28.4792 246.704 28.0625 246.912C27.0208 247.454 26.5625 247.975 26.6875 248.475C26.7708 248.767 27.1458 248.975 27.8125 249.1C28.4375 249.183 29.2083 249.267 30.125 249.35C32.7917 249.6 34.7083 250.017 35.875 250.6C36.9583 250.225 37.9583 249.954 38.875 249.787C39.75 249.579 40.8125 249.621 42.0625 249.912C43.2708 250.162 44.25 250.371 45 250.537C45.75 250.704 46.4167 250.892 47 251.1C47.5417 251.267 47.9583 251.475 48.25 251.725C48.5417 251.975 48.6458 252.287 48.5625 252.662C48.5208 253.037 48.4167 253.287 48.25 253.412C48.0833 253.537 47.9167 253.662 47.75 253.787C47.2083 254.079 46.8125 254.579 46.5625 255.287C46.3125 255.996 46 256.496 45.625 256.787C45.25 257.079 44.8125 257.267 44.3125 257.35C43.8125 257.433 43.2708 257.496 42.6875 257.537C42.1042 257.537 41.4792 257.683 40.8125 257.975C40.1042 258.225 39.5208 258.35 39.0625 258.35C38.6042 258.35 38.2083 258.308 37.875 258.225C37.5 258.142 37.1458 258.058 36.8125 257.975C36.4375 257.892 35.875 257.975 35.125 258.225C33.5833 258.725 32.3125 258.579 31.3125 257.787C30.4792 257.204 29.7708 256.954 29.1875 257.037C27.9792 257.287 27.1875 257.767 26.8125 258.475C26.6042 258.808 26.3542 258.975 26.0625 258.975C25.4375 258.975 24.9792 259.079 24.6875 259.287C24.3542 259.454 23.9375 259.454 23.4375 259.287C22.9375 259.121 22.5208 259.142 22.1875 259.35C22.1458 259.35 21.7292 259.412 20.9375 259.537C20.1042 259.621 19.0625 259.725 17.8125 259.85C16.5208 259.933 15.1458 260.037 13.6875 260.162C12.1875 260.287 10.75 260.371 9.37499 260.412C6.20833 260.579 4.35416 260.558 3.81249 260.35C3.27083 260.1 2.87499 259.746 2.62499 259.287C2.37499 258.787 2.20833 258.267 2.12499 257.725C1.99999 256.558 2.08333 255.6 2.37499 254.85Z" fill="#22FF64"/>
<path d="M48.1875 201.482C47.9375 201.607 47.5833 201.628 47.125 201.545C46.625 201.462 45.9167 201.42 45 201.42C44.0833 201.378 43.625 201.587 43.625 202.045C43.625 202.42 44.0417 202.753 44.875 203.045C45.6667 203.295 46.1875 203.649 46.4375 204.107C46.6458 204.566 46.8125 205.024 46.9375 205.482C47.0208 205.899 47.125 206.337 47.25 206.795C47.3333 207.212 47.5208 207.566 47.8125 207.857C48.1042 208.149 48.3958 208.607 48.6875 209.232C49.0208 209.857 48.9375 210.587 48.4375 211.42C47.9792 212.253 47.5625 212.816 47.1875 213.107C46.8125 213.399 46.4583 213.628 46.125 213.795C45.7917 213.92 45.5 214.066 45.25 214.232C45 214.399 44.8333 214.67 44.75 215.045C44.5417 215.878 43.875 216.441 42.75 216.732C41.5833 217.024 40.3542 217.316 39.0625 217.607C37.7292 217.899 36.5625 218.107 35.5625 218.232C34.5625 218.316 33.6042 218.42 32.6875 218.545C30.4792 218.837 29.1667 219.232 28.75 219.732C28.2917 220.232 27.6667 220.524 26.875 220.607C24.875 220.816 23.4583 220.92 22.625 220.92C21.75 220.92 20.8333 220.691 19.875 220.232C18.875 219.732 17.8958 219.482 16.9375 219.482C15.9375 219.482 15.1875 219.566 14.6875 219.732C14.1458 219.857 13.7292 219.962 13.4375 220.045C13.1042 220.128 12.75 220.17 12.375 220.17C11.7083 220.212 10.7083 220.045 9.37499 219.67C8.66666 219.462 8.02083 219.295 7.43749 219.17C6.81249 219.045 6.27083 218.92 5.81249 218.795C4.14583 218.337 3.31249 217.17 3.31249 215.295V214.42C3.31249 213.295 2.95833 212.295 2.24999 211.42C1.95833 211.003 1.72916 210.545 1.56249 210.045C1.39583 209.545 1.41666 209.128 1.62499 208.795C1.79166 208.462 1.85416 208.003 1.81249 207.42C1.72916 206.837 1.49999 206.232 1.12499 205.607C0.708327 204.941 0.437494 204.17 0.312494 203.295C0.145827 202.42 0.187494 201.503 0.437494 200.545C0.645827 199.587 1.02083 198.92 1.56249 198.545C2.10416 198.17 2.45833 197.878 2.62499 197.67C2.74999 197.42 2.87499 197.191 2.99999 196.982C3.58333 196.191 4.83333 195.712 6.74999 195.545C8.37499 195.42 9.91666 195.628 11.375 196.17C11.6667 196.253 12.125 196.399 12.75 196.607C13.375 196.816 14.0417 197.087 14.75 197.42C15.4167 197.712 16.0625 197.857 16.6875 197.857C17.2708 197.857 17.8333 197.899 18.375 197.982C18.9167 198.024 19.4167 198.191 19.875 198.482C21 199.191 21.5208 200.587 21.4375 202.67C21.4375 204.462 21.1458 205.566 20.5625 205.982C20.2708 206.191 19.8958 206.316 19.4375 206.357C18.9792 206.357 18.3542 206.399 17.5625 206.482C16.7708 206.524 16.0417 206.753 15.375 207.17C14.7083 207.587 14.5417 208.149 14.875 208.857C15.125 209.316 15.9792 209.649 17.4375 209.857C18.8542 210.066 20.2917 210.045 21.75 209.795C23.2083 209.545 24.1042 209.441 24.4375 209.482C24.7292 209.482 25.0208 209.524 25.3125 209.607C27.2708 210.149 30.0417 210.232 33.625 209.857C36.25 209.566 37.6667 208.92 37.875 207.92C38.0417 207.003 37.5625 206.253 36.4375 205.67C35.3958 205.17 33.25 205.212 30 205.795C27.4583 206.295 26.125 205.878 26 204.545C25.9167 203.962 25.8958 203.232 25.9375 202.357C25.9792 201.441 25.9167 200.649 25.75 199.982C25.5417 199.274 25.5417 198.545 25.75 197.795C25.9167 197.003 26.2708 196.357 26.8125 195.857C27.3542 195.357 28.3958 195.357 29.9375 195.857C33.0208 196.857 35.7083 197.045 38 196.42C38.375 196.337 38.8958 196.212 39.5625 196.045C40.2292 195.878 40.9792 195.732 41.8125 195.607C42.6042 195.482 43.4167 195.399 44.25 195.357C45.0833 195.316 45.8333 195.378 46.5 195.545C48.0417 195.837 48.8125 196.628 48.8125 197.92C48.8125 199.17 48.7708 200.045 48.6875 200.545C48.6042 201.045 48.4375 201.357 48.1875 201.482Z" fill="#22FF64"/>
<path d="M39.75 160.06L37.4375 160.435C37.0208 160.435 36.75 160.518 36.625 160.685C36.4583 160.852 36.2083 161.122 35.875 161.497C35.5417 161.872 35.0208 162.102 34.3125 162.185C33.5625 162.268 32.7083 162.289 31.75 162.247C30.5417 162.164 28.5 161.935 25.625 161.56C22.0417 161.852 19.7292 162.039 18.6875 162.122C13.1875 162.581 9.79166 162.456 8.49999 161.747C8.16666 161.581 7.91666 161.414 7.74999 161.247C7.41666 160.914 6.87499 160.768 6.12499 160.81C4.58333 160.977 3.52083 160.164 2.93749 158.372C2.77083 157.831 2.56249 157.31 2.31249 156.81C2.06249 156.31 1.83333 155.789 1.62499 155.247C1.20833 154.039 1.22916 153.018 1.68749 152.185C2.10416 151.31 2.27083 150.414 2.18749 149.497C2.06249 148.581 1.93749 147.643 1.81249 146.685C1.64583 145.727 1.54166 144.81 1.49999 143.935C1.45833 143.018 1.66666 142.247 2.12499 141.622C2.58333 140.956 3.08333 140.268 3.62499 139.56C4.16666 138.81 4.77083 138.143 5.43749 137.56C6.93749 136.268 8.39583 135.727 9.81249 135.935C11.3958 135.268 12.8958 135.122 14.3125 135.497C14.6875 135.622 15.0625 135.643 15.4375 135.56C16.1875 135.393 16.8542 135.393 17.4375 135.56C18.0208 135.727 18.6458 135.768 19.3125 135.685C19.9375 135.56 20.5833 135.643 21.25 135.935C21.9167 136.227 22.5417 136.414 23.125 136.497C23.7083 136.581 24.2083 136.789 24.625 137.122C25 137.456 25.2292 137.768 25.3125 138.06C25.3542 138.31 25.4792 138.56 25.6875 138.81C25.8542 139.018 26.0417 139.185 26.25 139.31C26.4583 139.393 26.6875 139.539 26.9375 139.747C27.5625 140.206 28.0833 140.852 28.5 141.685C29.2917 141.227 29.9167 140.685 30.375 140.06C30.7917 139.435 31.2708 138.914 31.8125 138.497C32.3125 138.039 32.7917 137.81 33.25 137.81C33.7083 137.768 34.1667 137.664 34.625 137.497C35.0833 137.331 35.4583 137.268 35.75 137.31C36 137.352 36.2917 137.414 36.625 137.497C36.9167 137.539 37.25 137.602 37.625 137.685C37.9583 137.768 38.3542 137.81 38.8125 137.81C39.2292 137.768 39.6042 137.81 39.9375 137.935C40.2292 138.018 40.5417 138.164 40.875 138.372C41.1667 138.539 41.5 138.747 41.875 138.997C42.25 139.247 42.7083 139.477 43.25 139.685C43.9167 139.935 44.5208 140.352 45.0625 140.935C45.5625 141.477 45.9792 141.914 46.3125 142.247C46.6042 142.539 47.0208 142.831 47.5625 143.122C48.5625 143.664 49.2083 144.414 49.5 145.372C49.75 146.247 49.5208 146.914 48.8125 147.372C48.3542 147.622 48.2708 148.081 48.5625 148.747C48.8542 149.372 49.0833 149.872 49.25 150.247C49.4583 150.622 49.5208 151.081 49.4375 151.622C49.3958 152.122 49.3125 152.643 49.1875 153.185C49.1042 153.685 49.1458 154.206 49.3125 154.747C49.5208 155.289 49.5833 155.789 49.5 156.247C49.4167 156.706 49.2708 157.122 49.0625 157.497C48.6458 158.331 48.0625 158.872 47.3125 159.122C46.5625 159.372 45.7917 159.539 45 159.622C44.1667 159.706 43.4167 159.831 42.75 159.997C42.0417 160.164 41.5417 160.247 41.25 160.247L39.75 160.06ZM22.75 151.185C24.9583 151.185 26.0625 150.789 26.0625 149.997C26.0625 149.581 25.7708 149.206 25.1875 148.872C24.5625 148.539 23.9792 148.331 23.4375 148.247C22.8958 148.206 22.3542 148.185 21.8125 148.185C21.2292 148.143 20.5208 147.872 19.6875 147.372C18.8125 146.831 18.0208 146.664 17.3125 146.872C16.5625 147.039 16.125 147.352 16 147.81C15.8333 148.268 15.6042 148.685 15.3125 149.06C14.9792 149.393 14.7083 149.789 14.5 150.247C14.2917 150.664 14.4583 151.039 15 151.372C15.5 151.664 16.0833 151.664 16.75 151.372C17.4167 151.039 18.3125 150.935 19.4375 151.06C20.5625 151.143 21.6667 151.185 22.75 151.185ZM31.75 149.435C31.4583 150.393 31.9375 150.914 33.1875 150.997C34.0625 151.081 34.9583 151.185 35.875 151.31C36.7917 151.435 37.4792 151.456 37.9375 151.372C38.3958 151.247 38.8958 151.122 39.4375 150.997C39.6458 150.747 39.8333 150.497 40 150.247C40.1667 149.997 40.3333 149.768 40.5 149.56C40 149.31 39.625 149.081 39.375 148.872C39.125 148.622 38.8542 148.414 38.5625 148.247C37.8958 147.831 37.0833 147.602 36.125 147.56C35.125 147.477 34.3333 147.539 33.75 147.747C32.6667 148.081 32 148.643 31.75 149.435Z" fill="#22FF64"/>
<path d="M13.4375 109.38C13.8125 110.797 16.2292 111.067 20.6875 110.192C21.8958 109.901 22.9167 109.755 23.75 109.755C24.5417 109.713 25.4167 109.817 26.375 110.067C27.3333 110.317 28.1042 110.442 28.6875 110.442C29.2708 110.442 29.9583 110.526 30.75 110.692C31.625 110.651 32.5208 110.672 33.4375 110.755C34.3125 110.797 35.1667 110.838 36 110.88C38.0417 111.005 39.25 111.026 39.625 110.942C40 110.859 40.25 110.734 40.375 110.567C40.4583 110.359 40.5417 110.13 40.625 109.88C40.8333 109.297 41.1042 108.942 41.4375 108.817C41.7708 108.692 42.25 108.651 42.875 108.692C43.4583 108.692 44.0833 108.755 44.75 108.88C46.3333 109.255 47.3542 109.776 47.8125 110.442C48.0625 110.817 48.1458 111.213 48.0625 111.63C47.9792 112.005 47.8958 112.422 47.8125 112.88C47.5625 114.297 47.6875 115.505 48.1875 116.505C49.5208 118.963 49.5208 120.859 48.1875 122.192C47.6458 122.734 46.8125 123.067 45.6875 123.192C43.6458 123.359 42.3333 123.255 41.75 122.88C41.1667 122.463 40.8125 122.13 40.6875 121.88C40.5208 121.588 40.375 121.338 40.25 121.13C40.0417 120.672 39.6875 120.442 39.1875 120.442C38.8125 120.442 38.4167 120.401 38 120.317C37.5417 120.192 37.0625 120.088 36.5625 120.005C35.3542 119.797 34.3542 119.901 33.5625 120.317C32.6458 120.776 31.8958 120.984 31.3125 120.942C30.7292 120.859 30.2083 120.797 29.75 120.755L28.25 120.505C27.0417 120.422 26.0208 120.442 25.1875 120.567C24.3125 120.692 23.4167 120.797 22.5 120.88C21.5417 120.922 20.6458 120.942 19.8125 120.942C18.9792 120.901 18.1875 120.88 17.4375 120.88C15.6875 120.88 14.6458 121.067 14.3125 121.442C13.9792 121.776 13.8125 122.088 13.8125 122.38C13.7708 122.672 13.75 122.963 13.75 123.255C13.8333 124.047 13.7083 124.547 13.375 124.755C12.9167 125.213 12.3333 125.442 11.625 125.442C10.9167 125.442 10.375 125.317 9.99999 125.067C9.62499 124.776 9.20833 124.588 8.74999 124.505C8.24999 124.422 7.72916 124.38 7.18749 124.38C5.93749 124.297 5.12499 124.338 4.74999 124.505C4.33333 124.672 3.97916 124.797 3.68749 124.88C3.35416 124.922 3.04166 124.942 2.74999 124.942C1.54166 124.942 0.916661 124.088 0.874994 122.38C0.833327 121.338 0.854161 120.276 0.937494 119.192C0.979161 118.109 0.937494 117.255 0.812494 116.63C0.395827 114.463 0.229161 112.734 0.312494 111.442C0.395827 110.109 0.499994 109.255 0.624994 108.88C1.04166 107.838 2.18749 107.276 4.06249 107.192C4.93749 107.151 5.85416 107.13 6.81249 107.13C7.77083 107.13 8.74999 107.088 9.74999 107.005C11.8333 106.838 13.0625 107.63 13.4375 109.38Z" fill="#22FF64"/>
<path d="M3.06249 79.45L2.93749 77.45C2.93749 76.0333 3.16666 75.0333 3.62499 74.45C4.08333 73.825 4.49999 73.3666 4.87499 73.075C5.24999 72.7416 5.64583 72.45 6.06249 72.2C6.43749 71.95 6.83333 71.6166 7.24999 71.2C7.66666 70.7416 8.16666 70.5125 8.74999 70.5125C9.29166 70.5125 9.72916 70.3666 10.0625 70.075C10.3958 69.7416 10.9375 69.575 11.6875 69.575C12.4375 69.575 13.1667 69.5958 13.875 69.6375C14.5417 69.6375 15.1042 69.7 15.5625 69.825C15.9792 69.95 16.4167 70.0125 16.875 70.0125C17.2917 70.0125 17.6875 69.9291 18.0625 69.7625C18.3958 69.5541 19.25 69.5333 20.625 69.7C21.9583 69.825 23.3125 70.0541 24.6875 70.3875C26.0625 70.6791 27.25 71.075 28.25 71.575C30.125 72.575 31.6042 74.2 32.6875 76.45C33.1875 76.2416 33.75 76.0125 34.375 75.7625C34.9583 75.4708 35.5625 75.2 36.1875 74.95C37.7292 74.4083 38.8542 74.1375 39.5625 74.1375C40.2292 74.1375 40.7292 74.1166 41.0625 74.075C41.3542 73.9916 41.5833 73.9083 41.75 73.825C41.9167 73.7416 42.0417 73.6375 42.125 73.5125C42.2083 73.3458 42.375 73.1166 42.625 72.825C42.8333 72.5333 43.2083 72.3041 43.75 72.1375C44.2917 71.9708 44.8542 71.8875 45.4375 71.8875C46.7708 71.8875 47.6042 72.0541 47.9375 72.3875C48.2292 72.6791 48.4167 73.0125 48.5 73.3875C48.625 73.7208 48.7083 74.075 48.75 74.45C48.875 75.4083 48.75 76.0125 48.375 76.2625C48.0417 76.5958 47.7083 76.7833 47.375 76.825C47 76.825 46.6875 76.8875 46.4375 77.0125C46.1458 77.1375 45.9792 77.325 45.9375 77.575C45.8542 77.825 45.5833 78.0125 45.125 78.1375C44.6667 78.2208 44.375 78.3666 44.25 78.575C44.0833 78.7416 44.0417 79.1166 44.125 79.7C44.3333 80.7416 43.7083 81.5125 42.25 82.0125C41.9167 82.1375 41.4792 82.2625 40.9375 82.3875C40.3958 82.5125 39.875 82.6583 39.375 82.825C38.1667 83.1583 37.5208 83.5541 37.4375 84.0125C37.3125 84.4291 37.3542 84.7416 37.5625 84.95C37.7708 85.1583 38.0625 85.325 38.4375 85.45C38.7708 85.5333 39.1667 85.575 39.625 85.575C40.0417 85.575 40.5 85.5333 41 85.45C41.5 85.325 41.9167 85.3041 42.25 85.3875C42.5833 85.4708 42.8542 85.5958 43.0625 85.7625C43.2708 85.8875 43.4583 86.0333 43.625 86.2C43.8333 86.5333 44.25 86.7416 44.875 86.825C45.5 86.8666 46.0417 86.95 46.5 87.075C47.625 87.325 48.3333 87.6583 48.625 88.075C48.9167 88.4916 49.0833 88.9083 49.125 89.325C49.2083 89.7416 49.2083 90.1583 49.125 90.575C48.9167 91.6166 48.5417 92.2625 48 92.5125C47.5 92.7625 47.125 92.9083 46.875 92.95C46.5833 92.9916 46.3125 93.0125 46.0625 93.0125C45.8125 92.9708 45.5417 92.9291 45.25 92.8875C44.9583 92.8458 44.625 92.8458 44.25 92.8875C43.8333 92.8875 43.2917 92.9708 42.625 93.1375C41.9583 93.3041 41.1667 93.4083 40.25 93.45L38.625 93.5125C38.4583 93.5125 38.1875 93.3666 37.8125 93.075C37.3958 92.7833 36.9375 92.7 36.4375 92.825C35.8958 92.9083 35.5625 93.1375 35.4375 93.5125C35.2708 93.8875 35.0833 94.075 34.875 94.075C34.6667 94.075 34.1458 94.0333 33.3125 93.95C32.4792 93.8666 31.4375 93.9083 30.1875 94.075C28.9375 94.2 27.8333 94.2833 26.875 94.325C24.7917 94.4916 23.625 94.8666 23.375 95.45C23.0833 95.9916 22.75 96.3041 22.375 96.3875C21.9583 96.4708 21.5 96.4708 21 96.3875C20.5 96.3041 19.875 96.2208 19.125 96.1375C18.375 96.0125 17.625 95.8875 16.875 95.7625C16.0833 95.6375 15.3542 95.5333 14.6875 95.45C14.0208 95.325 13.5625 95.2416 13.3125 95.2C13.0625 95.1583 12.8333 95.1583 12.625 95.2C12.375 95.2 12.1458 95.2 11.9375 95.2C11.2708 95.2833 10.6875 95.2833 10.1875 95.2C9.22916 95.0333 8.56249 94.9916 8.18749 95.075C7.77083 95.1583 7.16666 95.0958 6.37499 94.8875C5.54166 94.6375 4.95833 94.4291 4.62499 94.2625C4.29166 94.0958 4.04166 93.7833 3.87499 93.325C3.70833 92.8666 3.47916 92.4291 3.18749 92.0125C2.85416 91.5541 2.54166 91.1375 2.24999 90.7625C1.91666 90.3875 1.62499 90.0541 1.37499 89.7625C1.08333 89.4708 0.874994 89.1166 0.749994 88.7C0.499994 87.4916 0.479161 86.6166 0.687494 86.075C0.854161 85.4916 1.04166 85.075 1.24999 84.825C1.45833 84.575 1.66666 84.2833 1.87499 83.95C2.08333 83.575 2.24999 83.2 2.37499 82.825C2.45833 82.4083 2.49999 82.0333 2.49999 81.7C2.58333 80.825 2.70833 80.3041 2.87499 80.1375C2.99999 79.9291 3.06249 79.7 3.06249 79.45ZM20.5 84.6375L26.1875 84.2625C26.5625 84.2625 26.9375 84.2833 27.3125 84.325C27.6458 84.3666 27.9583 84.4083 28.25 84.45C28.875 84.4916 29.25 84.2625 29.375 83.7625C29.4583 83.3458 29.3542 83.0125 29.0625 82.7625C28.7292 82.5125 28.2917 82.2833 27.75 82.075C26.7083 81.575 26.0417 81.4083 25.75 81.575C25.3333 81.9083 24.9792 82.0125 24.6875 81.8875C24.3542 81.7208 23.7292 81.4083 22.8125 80.95C21.8958 80.45 21.1042 80.0958 20.4375 79.8875C19.7708 79.6375 19.0625 79.575 18.3125 79.7C17.5208 79.825 16.9792 79.8875 16.6875 79.8875H16C15.6667 79.8875 15.375 80.0541 15.125 80.3875C14.8333 80.6791 14.6875 80.8875 14.6875 81.0125C14.6458 81.1375 14.625 81.2416 14.625 81.325C14.7083 81.7 14.6875 82.0541 14.5625 82.3875C14.3958 82.7208 14.3333 83.0333 14.375 83.325C14.375 83.6166 14.5625 83.95 14.9375 84.325C15.3125 84.7 15.7083 84.9083 16.125 84.95C16.5 84.9916 16.9375 84.9916 17.4375 84.95C18.9375 84.7416 19.9583 84.6375 20.5 84.6375Z" fill="#22FF64"/>
<path d="M47.75 48.5825C49.0417 50.2491 49.6875 51.6658 49.6875 52.8325C49.6875 53.3741 49.5208 53.9575 49.1875 54.5825C48.8542 55.1658 48.4583 55.5616 48 55.77C47.5417 55.9366 47.0417 56.02 46.5 56.02C45.9167 56.02 45.2917 56.02 44.625 56.02C43.5 55.9783 42.4792 56.145 41.5625 56.52C40.6458 56.895 39.9792 57.145 39.5625 57.27C38.6875 57.4783 37.4167 57.5408 35.75 57.4575C34.4583 57.4158 33.6875 57.4575 33.4375 57.5825C33.1458 57.7075 32.875 57.77 32.625 57.77C32.375 57.77 31.5 57.6866 30 57.52C26.4167 57.0616 24.5833 57.27 24.5 58.145C24.4167 58.6033 24.3125 58.8325 24.1875 58.8325C24.0625 58.7908 23.7917 58.895 23.375 59.145C22.9167 59.395 22.5625 59.5616 22.3125 59.645C22.0625 59.6866 21.6667 59.7075 21.125 59.7075C20.5833 59.7075 20.0833 59.645 19.625 59.52C19.1667 59.395 18.7083 59.2491 18.25 59.0825C15.0833 57.9158 12.4167 57.4991 10.25 57.8325C7.87499 58.2908 6.20833 58.4575 5.24999 58.3325C4.24999 58.1658 3.54166 57.9366 3.12499 57.645C2.70833 57.3116 2.33333 56.9366 1.99999 56.52C1.62499 56.1033 1.33333 55.6033 1.12499 55.02C0.708327 53.77 0.812494 52.6866 1.43749 51.77C2.06249 50.8116 2.45833 49.9366 2.62499 49.145C2.79166 48.3533 2.89583 47.6033 2.93749 46.895C3.06249 45.0616 3.29166 43.9366 3.62499 43.52C3.95833 43.1033 4.22916 42.7075 4.43749 42.3325C4.60416 41.9158 4.74999 41.5616 4.87499 41.27C5.29166 40.4366 5.68749 39.9366 6.06249 39.77C6.43749 39.6033 6.79166 39.3741 7.12499 39.0825C7.41666 38.7908 7.74999 38.4783 8.12499 38.145C9.08333 37.395 10.1042 36.9158 11.1875 36.7075C11.8958 36.5825 12.5208 36.4783 13.0625 36.395C13.6042 36.3116 14.125 36.2075 14.625 36.0825C16.25 35.7075 17.6875 35.27 18.9375 34.77C21.4792 33.77 23.4375 33.52 24.8125 34.02L25.0625 34.145C25.8958 33.8116 26.7917 33.77 27.75 34.02C28.6667 34.2283 29.3333 34.395 29.75 34.52C30.125 34.6033 30.5625 34.7283 31.0625 34.895C31.5625 35.0616 32.2083 35.2491 33 35.4575C33.75 35.6658 34.4167 35.8741 35 36.0825C35.5417 36.2908 36.0417 36.52 36.5 36.77C37.4167 37.27 38.9583 38.5616 41.125 40.645C41.7917 41.3116 42.4583 41.7908 43.125 42.0825C43.7917 42.3325 44.3125 42.7075 44.6875 43.2075C45.9375 43.8741 46.7083 44.4366 47 44.895C47.7083 45.8116 47.9583 47.0408 47.75 48.5825ZM20.1875 49.4575L23.75 49.27C24.75 49.1866 25.6875 49.2491 26.5625 49.4575C27.3958 49.6658 28.2917 49.7075 29.25 49.5825C30.2083 49.4158 31.0208 49.3741 31.6875 49.4575C32.3542 49.5408 32.8958 49.4991 33.3125 49.3325C33.7292 49.1658 34.1667 49.1241 34.625 49.2075C35.0417 49.2491 35.4583 49.2908 35.875 49.3325C36.9583 49.4158 37.5417 49.2075 37.625 48.7075C37.6667 48.3741 37.5208 48.0616 37.1875 47.77C36.8125 47.4783 36.3542 47.2283 35.8125 47.02C34.9375 46.645 33.7917 46.3325 32.375 46.0825C31.7917 45.9991 31.1667 45.7908 30.5 45.4575C29.25 44.8741 28.3542 44.5825 27.8125 44.5825C27.2292 44.5825 26.875 44.5616 26.75 44.52C26.5833 44.4783 26.4167 44.4366 26.25 44.395C26.0833 44.3116 25.8958 44.2283 25.6875 44.145C25.4792 44.0616 25.1042 43.9783 24.5625 43.895C23.9792 43.8116 23.2708 43.895 22.4375 44.145C21.5625 44.3533 20.8542 44.7908 20.3125 45.4575C19.7708 46.0825 19.3125 46.52 18.9375 46.77C18.5625 47.02 18.2292 47.2491 17.9375 47.4575C17.3542 47.8741 17.1875 48.27 17.4375 48.645C17.8542 49.1866 18.7708 49.4575 20.1875 49.4575Z" fill="#22FF64"/>
<path d="M11.5625 0.777466C11.8125 0.652466 12.0833 0.610799 12.375 0.652466C12.6667 0.694132 13.1667 0.985799 13.875 1.52747C14.5833 2.06913 15.3542 2.40247 16.1875 2.52747C16.9792 2.6108 17.6458 2.63163 18.1875 2.58997C18.6875 2.5483 19.125 2.5483 19.5 2.58997C20.4167 2.63163 21.0417 3.13163 21.375 4.08997C21.7083 4.9233 21.6875 5.56913 21.3125 6.02747C20.9375 6.4858 20.4583 6.8608 19.875 7.15247C19.25 7.44413 18.7292 7.6733 18.3125 7.83997C17.8542 7.96497 17.6042 8.19413 17.5625 8.52747C17.4375 9.1108 17.5 9.56913 17.75 9.90247C18 10.1941 18.2083 10.4233 18.375 10.59C18.7083 10.9233 18.9375 11.2775 19.0625 11.6525C19.1875 11.9858 19.3125 12.2566 19.4375 12.465C19.7292 12.8816 20.2083 13.0483 20.875 12.965C22.1667 12.7983 24.125 11.3608 26.75 8.65247C27.25 8.15247 27.7917 7.56913 28.375 6.90247C28.9583 6.19413 29.625 5.50663 30.375 4.83997C32.1667 3.33997 34.1875 2.50663 36.4375 2.33997C38.7292 2.1733 40.7292 2.50663 42.4375 3.33997C43.8125 4.00663 44.7083 4.7983 45.125 5.71497C45.5 6.4233 46 6.90247 46.625 7.15247C47.2083 7.40247 47.6458 7.58997 47.9375 7.71497C48.1875 7.83997 48.3958 8.1108 48.5625 8.52747C48.7708 8.90247 48.8542 9.33997 48.8125 9.83997C48.7708 10.34 48.6667 10.8191 48.5 11.2775C48.375 11.6941 48.2083 12.09 48 12.465C47.8333 12.7983 47.7292 13.09 47.6875 13.34C47.6458 13.5483 47.7292 13.7566 47.9375 13.965C48.1042 14.1733 48.2917 14.3816 48.5 14.59C49.125 15.215 49.3542 15.7775 49.1875 16.2775C49.0625 16.7775 48.8333 17.3608 48.5 18.0275C48.1667 18.6941 47.75 19.34 47.25 19.965C45.5 22.215 43.7083 22.9858 41.875 22.2775C40.6667 21.8191 39.8125 21.3191 39.3125 20.7775C38.8125 20.1941 38.5625 19.7358 38.5625 19.4025C38.5625 18.8608 38.7708 18.5066 39.1875 18.34C39.5625 18.1316 39.8958 17.965 40.1875 17.84C40.4375 17.715 40.6458 17.5691 40.8125 17.4025C40.9792 17.2358 41.1458 16.9858 41.3125 16.6525C41.4792 16.2775 41.5833 15.8816 41.625 15.465C41.7083 14.4233 41.2917 13.6316 40.375 13.09C39.4583 12.5483 38.4583 12.34 37.375 12.465C35.4167 12.7566 34.5833 13.1733 34.875 13.715C35.1667 14.1733 35.1875 14.7358 34.9375 15.4025C34.6458 16.0691 34.2917 16.4233 33.875 16.465C33.4167 16.5066 32.9792 16.59 32.5625 16.715C32.1458 16.84 31.75 16.9858 31.375 17.1525C30.4167 17.5275 29.8958 17.8608 29.8125 18.1525C29.7292 18.4858 29.6875 18.9441 29.6875 19.5275C29.6875 20.0691 29.3333 20.6733 28.625 21.34C27.875 22.0066 26.9583 22.4858 25.875 22.7775C24.75 23.0691 23.7917 23.3191 23 23.5275C22.1667 23.7358 21.5208 23.9233 21.0625 24.09C20.6042 24.2566 20.125 24.4025 19.625 24.5275C18.0417 24.9441 16 24.965 13.5 24.59C12.0417 24.34 10.7708 23.8816 9.68749 23.215C8.56249 22.5483 7.45833 21.7983 6.37499 20.965C4.24999 19.3816 2.77083 17.9233 1.93749 16.59C1.10416 15.2566 1.02083 14.2358 1.68749 13.5275C2.22916 12.9025 2.45833 12.2358 2.37499 11.5275C2.24999 10.7775 2.12499 10.1941 1.99999 9.77747L1.74999 8.65247C1.58333 7.94413 1.60416 7.2358 1.81249 6.52747C2.02083 5.77747 2.72916 5.1108 3.93749 4.52747C4.56249 4.2358 5.10416 3.94413 5.56249 3.65247C6.02083 3.31913 6.45833 3.00663 6.87499 2.71497C7.87499 2.08997 8.70833 1.7358 9.37499 1.65247C9.99999 1.52747 10.4583 1.38163 10.75 1.21497C11.0417 1.00663 11.3125 0.860799 11.5625 0.777466Z" fill="#22FF64"/>
</svg>
